<svg width="39" height="39" viewBox="0 0 39 39" fill="none" xmlns="http://www.w3.org/2000/svg">
<g id="charging 1" clip-path="url(#clip0_2_117)">
<g id="Group">
<g id="Group_2">
<path id="Vector" d="M26.0309 3.73071H12.969C11.527 3.73071 10.3539 4.9038 10.3539 6.34585V35.8078C10.3539 37.2499 11.527 38.423 12.969 38.423H26.031C27.4731 38.423 28.6462 37.2499 28.6462 35.8078V6.34594C28.6462 4.9038 27.4731 3.73071 26.0309 3.73071ZM27.3846 35.8079C27.3846 36.5541 26.7771 37.1615 26.0309 37.1615H12.969C12.2228 37.1615 11.6154 36.5541 11.6154 35.8079V6.34594C11.6154 5.59974 12.2228 4.99231 12.969 4.99231H26.031C26.7772 4.99231 27.3847 5.59974 27.3847 6.34594V35.8079H27.3846Z" fill="black"/>
</g>
</g>
<g id="Group_3">
<g id="Group_4">
<path id="Vector_2" d="M22.9693 0.576904H16.0308C15.6825 0.576904 15.4 0.859365 15.4 1.2077V4.36152C15.4 4.70986 15.6825 4.99232 16.0308 4.99232H22.9693C23.3176 4.99232 23.6001 4.70986 23.6001 4.36152V1.2077C23.6 0.859365 23.3176 0.576904 22.9693 0.576904ZM22.3385 3.73072H16.6615V1.83841H22.3385V3.73072Z" fill="black"/>
</g>
</g>
<g id="Group_5">
<g id="Group_6">
<path id="Vector_3" d="M24.1318 17.8996C24.0161 17.7175 23.8155 17.6076 23.5999 17.6076H19.8153V11.9306C19.8153 11.635 19.6098 11.379 19.3212 11.315C19.03 11.2512 18.7379 11.396 18.6129 11.664L14.1975 21.1255C14.1064 21.3207 14.1215 21.5494 14.2372 21.7311C14.353 21.9132 14.5536 22.0231 14.7692 22.0231H18.5538V27.7001C18.5538 27.9957 18.7593 28.2517 19.0478 28.3157C19.0938 28.326 19.1396 28.3309 19.1849 28.3309C19.4257 28.3309 19.6508 28.1923 19.7562 27.9667L24.1716 18.5052C24.2627 18.31 24.2476 18.0813 24.1318 17.8996ZM18.5538 20.7615H15.7597L18.5538 14.7738V20.7615ZM19.8153 24.857V18.8692H22.6094L19.8153 24.857Z" fill="black"/>
</g>
</g>
</g>
<defs>
<clipPath id="clip0_2_117">
<rect width="37.8462" height="37.8462" fill="white" transform="translate(0.576904 0.576904)"/>
</clipPath>
</defs>
</svg>
