<svg width="39" height="39" viewBox="0 0 39 39" fill="none" xmlns="http://www.w3.org/2000/svg">
<g id="plug 1" clip-path="url(#clip0_2_250)">
<g id="Group">
<g id="Group_2">
<g id="Group_3">
<path id="Vector" d="M29.5923 8.77688H27.7V2.46921C27.7 1.39688 26.88 0.576904 25.8077 0.576904C24.7353 0.576904 23.9154 1.39688 23.9154 2.46921V8.77688H15.0846V2.46921C15.0846 1.39688 14.2647 0.576904 13.1923 0.576904C12.12 0.576904 11.3 1.39688 11.3 2.46921V8.77688H9.40772C9.02926 8.77688 8.77698 9.02916 8.77698 9.40762V14.2014C8.77698 17.3553 9.97541 20.383 12.1201 22.7168C14.0124 24.8614 15.0847 27.6368 15.0847 30.4753V32.1153C15.0847 33.8814 16.4724 35.2692 18.2386 35.2692H18.8693V37.7922C18.8693 38.1707 19.1216 38.423 19.5001 38.423C19.8785 38.423 20.1308 38.1707 20.1308 37.7922V35.2692H20.7616C22.5277 35.2692 23.9154 33.8815 23.9154 32.1153V30.5384C23.9154 27.6369 24.9247 24.9245 26.8801 22.78C29.0247 20.4461 30.2232 17.3553 30.2232 14.2015V9.4077C30.2231 9.02924 29.9708 8.77688 29.5923 8.77688ZM25.1769 2.46921C25.1769 2.09075 25.4292 1.83847 25.8077 1.83847C26.1861 1.83847 26.4384 2.09075 26.4384 2.46921V8.77688H25.1769V2.46921ZM12.5615 2.46921C12.5615 2.1538 12.8138 1.83847 13.1923 1.83847C13.5707 1.83847 13.823 2.09075 13.823 2.46921V8.77688H12.5614V2.46921H12.5615ZM28.9616 14.1385C28.9616 17.04 27.9523 19.7523 25.9969 21.8969C23.8523 24.2308 22.6539 27.3215 22.6539 30.4754V32.1154C22.6539 33.1877 21.8339 34.0077 20.7616 34.0077H18.2385C17.1662 34.0077 16.3462 33.1877 16.3462 32.1154V30.5385C16.3462 27.3846 15.1478 24.2939 13.0031 21.9601C11.1108 19.8154 10.0385 17.04 10.0385 14.2015V10.0384H11.9308H14.4538H24.5461H27.0692H28.9616V14.1385Z" fill="black"/>
<path id="Vector_2" d="M22.0231 16.977H18.4908L21.8339 13.6339C22.0862 13.3816 22.0862 13.0031 21.8339 12.7508C21.5816 12.4984 21.2031 12.4985 20.9508 12.7508L16.5354 17.1661C16.3462 17.3554 16.2831 17.6076 16.4092 17.86C16.4723 18.1123 16.7246 18.2385 16.9769 18.2385H20.5093L17.1662 21.5816C16.9139 21.8338 16.9139 22.2123 17.1662 22.4647C17.2923 22.5908 17.4184 22.6539 17.6077 22.6539C17.7969 22.6539 17.9231 22.5908 18.0492 22.4647L22.4645 18.0493C22.6538 17.8601 22.7168 17.6078 22.5907 17.3554C22.5277 17.1031 22.2755 16.977 22.0231 16.977Z" fill="black"/>
</g>
</g>
</g>
</g>
<defs>
<clipPath id="clip0_2_250">
<rect width="37.8462" height="37.8462" fill="white" transform="translate(0.576904 0.576904)"/>
</clipPath>
</defs>
</svg>
