<svg width="41" height="41" viewBox="0 0 41 41" fill="none" xmlns="http://www.w3.org/2000/svg">
<g id="noise 1" clip-path="url(#clip0_2_88)">
<g id="Page 1">
<g id="096   Listening">
<path id="Shape" d="M12.5923 0.788574C6.0838 0.788574 0.788452 6.52525 0.788452 13.6082C0.813499 15.2505 1.26379 16.8583 2.0954 18.2747C2.48837 18.9451 2.82485 19.647 3.10135 20.3732C3.28474 20.9069 3.10872 21.4982 2.6633 21.8447C1.88835 22.4642 1.43928 23.4042 1.44422 24.3963C1.44111 25.4865 1.9801 26.507 2.88233 27.1191C3.20669 27.3394 3.40398 27.7035 3.41153 28.0955V33.5771C3.41153 37.193 6.05888 40.1348 9.31347 40.1348C12.5681 40.1348 15.2154 37.193 15.2154 33.5771C15.2054 30.8763 16.3799 28.307 18.4287 26.5472C22.2694 23.3426 24.4615 18.5778 24.3962 13.5761C24.3962 6.52525 19.1008 0.788574 12.5923 0.788574ZM17.5762 25.5511C15.2357 27.5595 13.8935 30.4931 13.9039 33.5771C13.9039 36.4697 11.8441 38.8233 9.31347 38.8233C6.78285 38.8233 4.72308 36.4697 4.72308 33.5771V28.0955C4.71245 27.2833 4.31391 26.5253 3.65089 26.0561C3.09063 25.6902 2.75372 25.0655 2.75576 24.3963C2.75126 23.7931 3.02755 23.2221 3.50334 22.8513C4.37644 22.1518 4.70981 20.9756 4.33355 19.922C4.03153 19.1276 3.66367 18.3599 3.23382 17.6268C2.51115 16.3977 2.12043 15.0018 2.09999 13.5761C2.09999 7.24857 6.80711 2.10012 12.5923 2.10012C18.3775 2.10012 23.0847 7.24857 23.0847 13.5761C23.1447 18.1934 21.1213 22.5921 17.5762 25.5511V25.5511Z" fill="black"/>
<path id="Shape_2" d="M12.5924 4.06738C8.93776 4.06738 5.82154 6.65899 4.61164 10.2815C4.60312 10.3031 4.59721 10.3241 4.59066 10.347C4.24491 11.3989 4.06784 12.4989 4.06604 13.6062C4.06604 14.3931 4.06604 16.7998 5.56972 18.3035C5.82703 18.552 6.23604 18.5485 6.48899 18.2955C6.74195 18.0426 6.7455 17.6336 6.49698 17.3762C5.95823 16.7774 5.61227 16.0301 5.50414 15.2319C5.60972 15.2253 5.71399 15.2168 5.82351 15.2168C8.83349 15.2155 11.2808 17.9697 11.2808 21.3535C11.2808 21.6676 11.2657 21.9627 11.2415 22.2539C10.915 22.6025 10.5677 22.9309 10.2014 23.2375C8.29145 24.8017 7.23286 27.1763 7.3462 29.6424C7.3462 30.0046 7.6398 30.2982 8.00198 30.2982C8.36415 30.2982 8.65775 30.0046 8.65775 29.6424C8.54493 27.5631 9.43365 25.5553 11.0487 24.2408C13.3623 22.465 14.6711 19.6775 14.5597 16.7631C14.5597 12.658 11.471 9.31355 7.67409 9.31355C7.23792 9.3147 6.80302 9.36084 6.37632 9.45126C7.51618 7.03159 9.91882 5.45754 12.5924 5.37892C16.5696 5.37892 19.8058 9.06894 19.8058 13.6049C19.8574 17.1782 18.3077 20.5873 15.5814 22.8978C15.4909 22.9759 15.3905 23.0598 15.2817 23.151C13.9767 24.2356 11.2625 26.4954 10.629 32.1934C10.5907 32.5524 10.8498 32.8749 11.2087 32.9147C11.2326 32.9182 11.2567 32.9204 11.2808 32.9213C11.6149 32.921 11.8953 32.6696 11.932 32.3376C12.5071 27.1636 14.8567 25.2088 16.1198 24.1589C16.2358 24.0618 16.3427 23.9726 16.4385 23.89C19.4568 21.3332 21.1732 17.5602 21.1174 13.6049C21.1174 8.34563 17.2929 4.06738 12.5924 4.06738V4.06738ZM7.67409 10.6251C10.7477 10.6251 13.2481 13.3793 13.2481 16.7631C13.2779 18.0039 13.0315 19.2359 12.5268 20.3698C12.0868 16.7238 9.25253 13.9039 5.82482 13.9039C5.67333 13.9039 5.52775 13.9151 5.38152 13.9256C5.38152 13.7997 5.38152 13.6902 5.38152 13.6049C5.38175 12.7279 5.50718 11.8555 5.75399 11.014C6.36207 10.7588 7.01466 10.6266 7.67409 10.6251V10.6251Z" fill="black"/>
<path id="Shape_3" d="M33.5769 15.8712C33.6272 13.8044 34.5038 11.844 36.0105 10.4283C36.1935 10.2658 36.2708 10.0148 36.2108 9.77751C36.1509 9.54018 35.9638 9.35597 35.7256 9.29977C35.4874 9.24356 35.2377 9.32472 35.078 9.51025C33.3266 11.1685 32.3134 13.4598 32.2654 15.8712C32.3134 18.2826 33.3266 20.574 35.078 22.2322C35.2377 22.4177 35.4874 22.4989 35.7256 22.4427C35.9638 22.3865 36.1509 22.2023 36.2108 21.9649C36.2708 21.7276 36.1935 21.4767 36.0105 21.3141C34.5038 19.8985 33.6272 17.938 33.5769 15.8712V15.8712Z" fill="black"/>
<path id="Shape_4" d="M37.9477 12.1025C37.8178 11.9869 37.6473 11.9275 37.4736 11.9376C37.3 11.9477 37.1374 12.0264 37.0218 12.1563C35.052 14.2413 35.052 17.5012 37.0218 19.5862C37.1776 19.7612 37.4149 19.8398 37.6444 19.7924C37.8738 19.745 38.0606 19.5787 38.1342 19.3563C38.2079 19.1339 38.1573 18.889 38.0015 18.714C36.474 17.1266 36.474 14.6159 38.0015 13.0285C38.1172 12.8986 38.1765 12.728 38.1664 12.5544C38.1563 12.3807 38.0777 12.2182 37.9477 12.1025V12.1025Z" fill="black"/>
<path id="Shape_5" d="M39.9661 14.1209C39.7238 13.8519 39.3093 13.8302 39.0402 14.0724C38.489 14.5066 38.1674 15.1695 38.1674 15.8712C38.1674 16.5728 38.489 17.2357 39.0402 17.67C39.2134 17.8322 39.4608 17.8882 39.687 17.8164C39.9132 17.7445 40.083 17.556 40.1308 17.3235C40.1786 17.091 40.0971 16.8508 39.9176 16.6955C39.6633 16.4935 39.5044 16.1949 39.4789 15.8712C39.5044 15.5475 39.6633 15.2489 39.9176 15.0469C40.1866 14.8046 40.2083 14.3901 39.9661 14.1209V14.1209Z" fill="black"/>
<path id="Shape_6" d="M30.2981 15.8714C30.2981 12.986 31.5906 10.1976 34.036 7.81588C34.2037 7.65189 34.2713 7.41085 34.2131 7.18358C34.155 6.95631 33.98 6.77732 33.7541 6.71405C33.5282 6.65077 33.2857 6.71282 33.1179 6.87682C30.4161 9.5104 28.9866 12.6207 28.9866 15.8714C28.9866 19.122 30.4161 22.2324 33.1179 24.8659C33.3772 25.1195 33.793 25.1148 34.0465 24.8554C34.3 24.5961 34.2953 24.1804 34.036 23.9269C31.5906 21.5451 30.2981 18.7568 30.2981 15.8714V15.8714Z" fill="black"/>
<path id="Shape_7" d="M27.0193 15.8714C27.0193 12.2686 28.542 8.79823 31.4241 5.83809C31.5881 5.67011 31.6501 5.42739 31.5866 5.20137C31.5231 4.97536 31.3439 4.80037 31.1164 4.74234C30.8889 4.6843 30.6478 4.75203 30.4838 4.92001C27.3597 8.13328 25.7078 11.9204 25.7078 15.8714C25.7078 19.8224 27.3597 23.6095 30.4838 26.8227C30.7373 27.0824 31.1533 27.0874 31.413 26.8339C31.6727 26.5804 31.6777 26.1643 31.4241 25.9046C28.542 22.9445 27.0193 19.4742 27.0193 15.8714V15.8714Z" fill="black"/>
</g>
</g>
</g>
<defs>
<clipPath id="clip0_2_88">
<rect width="39.4231" height="39.3462" fill="white" transform="translate(0.788452 0.788574)"/>
</clipPath>
</defs>
</svg>
