<svg width="53" height="53" viewBox="0 0 53 53" fill="none" xmlns="http://www.w3.org/2000/svg">
<g id="sound 1" clip-path="url(#clip0_20_150)">
<g id="Group">
<path id="Vector" d="M28.404 3.41306C27.428 2.86106 26.273 2.87906 25.314 3.45706C25.268 3.48406 25.224 3.51606 25.184 3.55006L11.634 15.0131H1C0.447 15.0131 0 15.4601 0 16.0131V35.0131C0 35.2791 0.105 35.5331 0.293 35.7201C0.481 35.9071 0.734 36.0131 1 36.0131L11.61 36.0081L25.153 48.4481C25.203 48.4941 25.257 48.5341 25.314 48.5681C25.806 48.8651 26.351 49.0141 26.896 49.0141C27.413 49.0131 27.929 48.8801 28.404 48.6121C29.403 48.0481 30 47.0181 30 45.8571V6.16906C30 5.00806 29.403 3.97806 28.404 3.41306ZM28 45.8571C28 46.2881 27.783 46.6671 27.421 46.8721C27.266 46.9591 26.873 47.1271 26.421 46.8981L13 34.5691V30.0131C13 29.4601 12.553 29.0131 12 29.0131C11.447 29.0131 11 29.4601 11 30.0131V34.0091L2 34.0131V17.0131H11V21.0131C11 21.5661 11.447 22.0131 12 22.0131C12.553 22.0131 13 21.5661 13 21.0131V16.4771L26.405 5.13706C26.866 4.89506 27.265 5.06706 27.421 5.15506C27.783 5.36006 28 5.73906 28 6.16906V45.8571Z" fill="black"/>
<path id="Vector_2" d="M38.7969 7.06603C38.2739 6.88903 37.7059 7.16903 37.5279 7.69203C37.3509 8.21403 37.6309 8.78303 38.1539 8.96103C45.2549 11.372 50.0259 18.024 50.0259 25.514C50.0259 32.997 45.2639 39.65 38.1769 42.068C37.6549 42.246 37.3749 42.814 37.5539 43.338C37.6959 43.753 38.0839 44.015 38.4999 44.015C38.6069 44.015 38.7159 43.998 38.8229 43.961C46.7189 41.268 52.0249 33.855 52.0249 25.515C52.0259 17.166 46.7099 9.75303 38.7969 7.06603Z" fill="black"/>
<path id="Vector_3" d="M43.026 25.5131C43.026 19.5411 39.017 14.2111 33.277 12.5511C32.744 12.4001 32.193 12.7031 32.039 13.2351C31.886 13.7651 32.191 14.3201 32.723 14.4731C37.612 15.8861 41.027 20.4261 41.027 25.5131C41.027 30.6001 37.612 35.1401 32.723 36.5531C32.192 36.7061 31.886 37.2611 32.039 37.7911C32.166 38.2291 32.565 38.5141 33 38.5141C33.092 38.5141 33.185 38.5011 33.277 38.4751C39.018 36.8151 43.026 31.4851 43.026 25.5131Z" fill="black"/>
</g>
</g>
<defs>
<clipPath id="clip0_20_150">
<rect width="52.026" height="52.026" fill="white"/>
</clipPath>
</defs>
</svg>
